<?xml version="1.0" encoding="UTF-8"?>
<!DOCTYPE svg PUBLIC "-//W3C//DTD SVG 1.1//EN" "http://www.w3.org/Graphics/SVG/1.1/DTD/svg11.dtd">
<!-- Creator: CorelDRAW 2020 (64 Bit) -->
<svg xmlns="http://www.w3.org/2000/svg" xml:space="preserve" width="66.146mm" height="28.046mm" version="1.1" style="shape-rendering:geometricPrecision; text-rendering:geometricPrecision; image-rendering:optimizeQuality; fill-rule:evenodd; clip-rule:evenodd"
viewBox="0 0 6614.6 2804.6"
 xmlns:xlink="http://www.w3.org/1999/xlink"
 xmlns:xodm="http://www.corel.com/coreldraw/odm/2003">
 <defs>
  <style type="text/css">
   <![CDATA[
    .fil0 {fill:#373435;fill-rule:nonzero}
    .fil1 {fill:#E02041;fill-rule:nonzero}
   ]]>
  </style>
 </defs>
 <g id="Camada_x0020_1">
  <metadata id="CorelCorpID_0Corel-Layer"/>
  <path class="fil0" d="M496.16 541.61l-159.93 0 0 -48.33c0,-41.24 -1.53,-67.13 -4.74,-78.13 -3.07,-10.99 -11.04,-16.49 -23.59,-16.49 -10.11,0 -17.78,5.04 -22.83,15.12 -5.06,10.08 -7.66,25.2 -7.66,45.36 0,27.26 1.23,47.42 3.83,60.02 2.45,12.83 10.11,26.81 22.82,41.93 12.57,15.35 38.61,37.57 77.98,66.66 52.54,38.49 86.85,74.69 103.25,108.82 16.39,33.91 24.66,83.39 24.66,148.22 0,72.62 -6.28,127.38 -18.85,164.26 -12.55,36.89 -33.54,65.52 -62.95,85.45 -29.57,19.93 -64.96,29.78 -106.62,29.78 -45.96,0 -85.48,-10.76 -118.11,-32.07 -32.78,-21.53 -55.3,-50.63 -67.55,-87.28 -12.26,-36.66 -18.38,-92.1 -18.38,-166.32l0 -42.84 160.84 0 0 56.12c0,47.66 1.99,78.58 5.98,93.02 4.13,14.2 12.1,21.3 23.89,21.3 12.87,0 21.76,-4.81 26.81,-14.43 5.06,-9.62 7.66,-30.01 7.66,-60.71 0,-42.61 -3.22,-69.19 -9.81,-79.95 -6.89,-10.77 -41.97,-42.61 -105.23,-95.53 -53.16,-44.68 -85.64,-85.23 -97.28,-121.88 -11.64,-36.43 -17.46,-79.73 -17.46,-129.9 0,-71.24 6.28,-123.71 18.84,-157.38 12.56,-33.91 33.85,-60.02 63.88,-78.35 30.03,-18.33 64.95,-27.49 104.62,-27.49 39.53,0 73.08,7.56 100.65,22.45 27.72,15.12 48.87,34.82 63.72,59.56 14.71,24.51 23.75,47.42 26.81,68.5 3.22,21.08 4.75,54.07 4.75,98.74l0 51.77zm223.96 60.48l-170.04 0 0 -59.79c0,-68.96 5.36,-122.11 15.93,-159.68 10.57,-37.34 32.01,-70.33 64.03,-98.96 32.02,-28.64 73.53,-43.07 124.85,-43.07 61.27,0 107.54,16.26 138.63,48.79 31.1,32.31 49.79,72.17 56.07,119.36 6.28,47.19 9.49,144.56 9.49,291.86l0 447.19 -176.46 0 0 -79.49c-11.04,32.07 -25.43,55.89 -42.9,71.93 -17.46,16.04 -38.29,24.05 -62.65,24.05 -31.71,0 -60.81,-13.28 -87.32,-39.86 -26.5,-26.8 -39.67,-84.99 -39.67,-175.02l0 -73.31c0,-66.67 7.05,-112.03 21.14,-136.31 14.09,-24.29 49.02,-52.46 104.78,-84.54 59.59,-35.05 91.45,-58.42 95.74,-70.56 4.14,-12.14 6.28,-36.65 6.28,-73.99 0,-46.51 -2.3,-76.75 -7.05,-90.95 -4.59,-13.98 -12.41,-21.08 -23.28,-21.08 -12.41,0 -20.06,5.96 -22.98,17.87 -3.06,11.68 -4.59,42.61 -4.59,92.32l0 93.24zm57.9 122.11c-29.26,31.84 -46.26,58.42 -50.86,79.95 -4.74,21.54 -7.04,52.24 -7.04,92.56 0,46.27 1.99,75.82 6.12,89.34 3.99,13.52 12.1,20.16 24.21,20.16 11.48,0 18.84,-5.27 22.36,-15.81 3.53,-10.53 5.21,-38.03 5.21,-82.93l0 -183.27zm618.41 -467.12l-84.56 890.71 -237.13 0 -91 -890.71 161.77 0 51.01 651.08c3.53,-48.34 10.27,-165.17 20.53,-350.28 5.36,-103.32 11.33,-203.66 17.61,-300.8l161.77 0zm437.5 460.48l-235.29 0 0 193.12c0,40.32 1.99,66.44 5.82,78.12 3.98,11.68 11.49,17.41 22.67,17.41 13.94,0 23.28,-7.79 27.88,-23.14 4.75,-15.58 7.04,-45.59 7.04,-90.03l0 -117.75 171.88 0 0 65.98c0,55.21 -2.3,97.59 -6.9,127.14 -4.74,29.55 -15.62,61.17 -32.62,94.85 -17,33.67 -38.76,58.87 -64.95,75.82 -26.2,16.73 -58.98,25.2 -98.5,25.2 -38.3,0 -72.15,-8.24 -101.56,-24.97 -29.26,-16.49 -52.09,-39.17 -68.48,-68.04 -16.39,-28.86 -27.57,-60.71 -33.85,-95.53 -6.28,-34.59 -9.5,-84.99 -9.5,-151.43l0 -260.02c0,-77.89 7.05,-139.28 21.14,-184.42 14.09,-44.9 37.07,-79.49 69.09,-103.32 32.17,-24.05 68.93,-35.96 110.6,-35.96 50.86,0 92.83,14.43 125.91,43.3 33.1,28.86 56.38,67.12 69.71,114.77 13.32,47.42 19.91,114.55 19.91,200.91l0 117.99zm-181.06 -144.33l0 -65.06c0,-46.28 -1.69,-75.83 -5.06,-89.35 -3.37,-13.52 -10.26,-20.16 -20.68,-20.16 -12.87,0 -20.84,5.73 -23.9,17.18 -3.06,11.46 -4.59,42.15 -4.59,92.33l0 65.06 54.23 0z"/>
  <path class="fil0" d="M437.27 1403.99l0 170.04 73.29 0 0 171.72 -73.29 0 0 577.66c0,70.85 3.11,110.59 9.1,118.64 6,8.06 30.87,12.23 74.84,12.23l0 173.38 -106.38 0c-59.96,0 -102.82,-3.06 -128.59,-9.45 -25.54,-6.11 -48.19,-20.56 -67.74,-43.06 -19.54,-22.51 -31.75,-48.07 -36.64,-77.25 -4.66,-28.9 -7.11,-96.97 -7.11,-204.22l0 -547.93 -55.97 0 0 -171.72 55.97 0 0 -170.04 262.52 0zm392.66 -95.03l0 297.03c22.66,-26.12 47.08,-45.85 73.29,-58.91 26.21,-13.06 54.41,-19.73 84.4,-19.73 45.97,0 85.06,14.73 117.49,43.91 32.2,29.45 51.96,63.07 59.29,101.41 7.11,38.35 10.66,108.37 10.66,209.78l0 745.21 -262.51 0 0 -760.49c0,-62.79 -2.44,-103.36 -7.55,-121.14 -5.11,-18.06 -16.21,-26.96 -33.76,-26.96 -16.22,0 -27.09,9.17 -32.87,27.79 -5.55,18.34 -8.44,55.01 -8.44,109.75l0 771.05 -262.52 0 0 -1318.7 262.52 0zm1031.41 796.89l-341.14 0 0 234.23c0,48.9 2.89,80.58 8.44,94.75 5.77,14.17 16.66,21.12 32.87,21.12 20.21,0 33.76,-9.45 40.42,-28.07 6.89,-18.89 10.22,-55.29 10.22,-109.19l0 -142.82 249.19 0 0 80.02c0,66.96 -3.33,118.37 -10,154.21 -6.88,35.84 -22.65,74.19 -47.3,115.03 -24.65,40.85 -56.19,71.41 -94.17,91.97 -37.98,20.28 -85.5,30.57 -142.81,30.57 -55.52,0 -104.6,-10.01 -147.25,-30.29 -42.42,-20.01 -75.51,-47.51 -99.27,-82.52 -23.76,-35.01 -39.97,-73.64 -49.09,-115.87 -9.1,-41.96 -13.76,-103.08 -13.76,-183.66l0 -315.37c0,-94.47 10.21,-168.93 30.64,-223.67 20.43,-54.46 53.75,-96.42 100.17,-125.31 46.64,-29.18 99.94,-43.63 160.35,-43.63 73.73,0 134.59,17.51 182.56,52.52 47.98,35.01 81.73,81.41 101.06,139.2 19.32,57.52 28.87,138.93 28.87,243.68l0 143.1zm-262.52 -175.05l0 -78.91c0,-56.13 -2.44,-91.97 -7.33,-108.36 -4.88,-16.4 -14.87,-24.46 -29.98,-24.46 -18.66,0 -30.21,6.95 -34.64,20.84 -4.45,13.9 -6.67,51.13 -6.67,111.98l0 78.91 78.62 0z"/>
  <path class="fil1" d="M1995.15 163.27l481.25 0c310.24,0 520.36,14.08 629.86,42.75 109.49,28.68 192.91,75.61 249.75,140.78 56.83,65.18 92.81,137.65 106.89,217.43 14.07,80.3 21.37,237.24 21.37,471.87l0 866.57c0,222.12 -10.42,370.72 -31.28,445.28 -20.86,75.08 -57.36,134 -108.97,176.23 -52.14,42.24 -116.28,71.44 -192.92,88.64 -76.13,16.69 -191.36,25.03 -345.17,25.03l-810.78 0 0 -2474.58zm644.45 422.34l0 1629.9c91.25,0 147.56,-18.77 168.41,-55.79 21.38,-37.54 31.81,-138.69 31.81,-303.97l0 -962.52c0,-112.1 -3.65,-184.05 -10.43,-215.86 -7.3,-31.8 -22.94,-54.74 -48.49,-69.34 -25.03,-15.12 -71.95,-22.42 -141.3,-22.42zm2194.58 -422.34l368.11 2474.58 -657.49 0 -34.93 -444.24 -232.02 0 -34.94 444.24 -665.83 0 326.4 -2474.58 930.7 0zm-341.52 1592.37c-30.76,-280.52 -63.09,-627.77 -97.5,-1042.29 -63.61,475.52 -103.76,822.77 -120.96,1042.29l218.46 0zm2002.71 -1592.37l-469.26 1578.81 0 895.77 -594.4 0 0 -895.77 -453.62 -1578.81 590.75 0c91.25,484.38 143.91,809.74 156.94,976.59 37.02,-263.83 96.46,-589.19 179.36,-976.59l590.23 0z"/>
 </g>
</svg>
